<svg xmlns="http://www.w3.org/2000/svg" viewBox="0 0 108 108" role="img" aria-label="Mystery Choice">
  <!--
    Android adaptive-icon foreground. 108×108 viewport with the important
    content kept inside the 66×66 safe zone (centered). The OS draws the
    rounded mask + background colour beneath this.
  -->
  <g transform="translate(54 54) scale(0.0625)">
    <!-- Outer ring -->
    <circle r="392" fill="#1f1147"/>
    <circle r="392" fill="none" stroke="#fbbf24" stroke-width="14"/>

    <!-- Wedges -->
    <path d="M 0 0 L -180 -311.8 A 360 360 0 0 1 180 -311.8 Z" fill="#fb923c"/>
    <path d="M 0 0 L 180 -311.8 A 360 360 0 0 1 360 0 Z" fill="#fbbf24"/>
    <path d="M 0 0 L 360 0 A 360 360 0 0 1 180 311.8 Z" fill="#34d399"/>
    <path d="M 0 0 L 180 311.8 A 360 360 0 0 1 -180 311.8 Z" fill="#38bdf8"/>
    <path d="M 0 0 L -180 311.8 A 360 360 0 0 1 -360 0 Z" fill="#a78bfa"/>
    <path d="M 0 0 L -360 0 A 360 360 0 0 1 -180 -311.8 Z" fill="#ef4444"/>

    <!-- Wedge dividers -->
    <g stroke="#1f1147" stroke-width="6" stroke-linecap="round">
      <line x1="0" y1="0" x2="0"      y2="-360"/>
      <line x1="0" y1="0" x2="311.8"  y2="-180"/>
      <line x1="0" y1="0" x2="311.8"  y2="180"/>
      <line x1="0" y1="0" x2="0"      y2="360"/>
      <line x1="0" y1="0" x2="-311.8" y2="180"/>
      <line x1="0" y1="0" x2="-311.8" y2="-180"/>
    </g>

    <!-- Hub -->
    <circle r="64" fill="#fef3c7" stroke="#1f1147" stroke-width="10"/>
    <circle r="22" fill="#1f1147"/>
    <text x="0" y="14" text-anchor="middle" font-family="Fredoka, system-ui, sans-serif"
          font-weight="700" font-size="44" fill="#fbbf24">?</text>

    <!-- Pointer (lifted into wheel area so it stays in the safe zone) -->
    <path d="M 0 -340 L -56 -448 Q 0 -484 56 -448 Z"
          fill="#1f1147" stroke="#fef3c7" stroke-width="10" stroke-linejoin="round"/>
  </g>
</svg>
